<svg width="20" height="20" viewBox="0 0 20 20" fill="none" xmlns="http://www.w3.org/2000/svg">
<path d="M6.74999 17.6842C5.59176 16.0313 4.9104 14.0203 4.9104 11.8489C4.9104 9.03693 7.18867 6.75781 9.99896 6.75781C12.8093 6.75781 15.0875 9.03693 15.0875 11.8489" stroke="currentColor" stroke-width="1.25" stroke-linecap="round" stroke-linejoin="round"/>
<path d="M6.75005 17.6842C5.59182 16.0313 4.91046 14.0203 4.91046 11.8489C4.91046 9.03693 7.18873 6.75781 9.99902 6.75781C12.8093 6.75781 15.0876 9.03693 15.0876 11.8489" stroke="currentColor" stroke-width="1.25" stroke-linecap="round" stroke-linejoin="round"/>
<path d="M15.3633 16.9264C15.2717 16.9315 15.1817 16.94 15.0892 16.94C12.2789 16.94 10.0007 14.6609 10.0007 11.8489" stroke="currentColor" stroke-width="1.25" stroke-linecap="round" stroke-linejoin="round"/>
<path d="M15.3634 16.9265C15.2718 16.9316 15.1818 16.9401 15.0894 16.9401C12.2791 16.9401 10.0008 14.661 10.0008 11.849" stroke="currentColor" stroke-width="1.25" stroke-linecap="round" stroke-linejoin="round"/>
<path d="M11.0578 18.3333C8.89581 16.985 7.45588 14.5854 7.45588 11.8489C7.45588 10.4429 8.59544 9.30339 10.0006 9.30339C11.4057 9.30339 12.5453 10.4429 12.5453 11.8489C12.5453 13.2549 13.6848 14.3945 15.09 14.3945C16.4951 14.3945 17.6347 13.2549 17.6347 11.8489C17.6347 7.63096 14.2169 4.21228 10.0014 4.21228C5.786 4.21228 2.36816 7.63096 2.36816 11.8489C2.36816 12.7891 2.47338 13.7047 2.66684 14.5871" stroke="currentColor" stroke-width="1.25" stroke-linecap="round" stroke-linejoin="round"/>
<path d="M11.0578 18.3333C8.89581 16.985 7.45588 14.5854 7.45588 11.8489C7.45588 10.4429 8.59544 9.30339 10.0006 9.30339C11.4057 9.30339 12.5453 10.4429 12.5453 11.8489C12.5453 13.2549 13.6848 14.3945 15.09 14.3945C16.4951 14.3945 17.6347 13.2549 17.6347 11.8489C17.6347 7.63096 14.2169 4.21228 10.0014 4.21228C5.786 4.21228 2.36816 7.63096 2.36816 11.8489C2.36816 12.7891 2.47338 13.7047 2.66684 14.5871" stroke="currentColor" stroke-width="1.25" stroke-linecap="round" stroke-linejoin="round"/>
<path d="M17.1048 4.8859C15.3696 2.9148 12.8325 1.66663 10.0001 1.66663C7.1678 1.66663 4.63073 2.9148 2.89551 4.8859" stroke="currentColor" stroke-width="1.25" stroke-linecap="round" stroke-linejoin="round"/>
<path d="M17.1048 4.8859C15.3696 2.9148 12.8325 1.66663 10.0001 1.66663C7.1678 1.66663 4.63073 2.9148 2.89551 4.8859" stroke="currentColor" stroke-width="1.25" stroke-linecap="round" stroke-linejoin="round"/>
</svg>
